<svg width="680" height="446" viewBox="0 0 680 446" fill="none" xmlns="http://www.w3.org/2000/svg">
<path d="M219.8 0.700195L0.5 223.3V445.9H219.7L439 223.3H219.8V0.700195Z" fill="#93C6BA"></path>
<path d="M294.299 73.6998C311.299 73.6998 322.699 69.3998 328.999 60.3998L330.699 72.6998H341.699V37.2998V36.2998H297.999V48.6998H318.799C315.499 56.7998 308.199 60.3998 294.999 60.3998C276.399 60.3998 268.899 53.3998 268.899 37.1998C268.899 21.0998 277.699 14.1998 297.999 14.1998C314.699 14.1998 322.999 18.6998 325.399 29.3998H341.199C338.299 9.9998 324.299 0.799805 297.699 0.799805C267.499 0.799805 253.399 12.4998 253.399 37.2998C253.399 62.0998 266.599 73.6998 294.299 73.6998Z" fill="#FFFFFF"></path>
<path d="M352.899 23.3002C352.899 36.3002 361.799 42.0002 380.499 42.2002L400.199 42.4002C411.899 42.5002 416.799 44.9002 416.799 50.6002C416.799 57.3002 409.799 60.3002 393.399 60.3002C376.399 60.3002 371.499 57.1002 369.199 47.6002H353.299C355.499 66.3002 366.799 73.6002 392.999 73.6002C419.999 73.6002 432.399 65.8002 432.399 49.5002C432.399 36.0002 424.099 29.7002 404.499 29.5002L384.799 29.3002C373.299 29.2002 368.599 27.0002 368.599 22.3002C368.599 16.5002 375.799 14.0002 391.799 14.0002C408.499 14.0002 413.699 16.7002 416.099 26.3002H432.199C429.899 8.1002 418.199 0.700195 391.799 0.700195C365.399 0.700195 352.899 8.0002 352.899 23.3002Z" fill="#FFFFFF"></path>
<path d="M445.199 1.7002V72.7002H515.999V59.3002H460.199V1.7002H445.199Z" fill="#FFFFFF"></path>
<path d="M286.3 112.7L253.3 183.6H269.5L277.1 167.3H324L331.6 183.6H347.8L314.8 112.7H286.3ZM283.4 153.9L300.6 116.8L317.8 153.9H283.4Z" fill="#FFFFFF"></path>
<path d="M410 112.7L384.4 157.6L358.7 112.7H341.8L369.3 160.7H382.7L381.9 162.1C378.7 167.7 376.4 170.3 371.4 170.3H362.2V183.7H372.7C383.5 183.7 389.5 178 395.7 167.3L426.8 112.8H410V112.7Z" fill="#FFFFFF"></path>
<path d="M499.3 112.7H435.4L433.4 150.5C432.9 159.5 430.2 164.5 426 170.3H419V198.6H433V183.7H494.8V198.6H508.8V183.7V182.7V170.3H499.3V112.7ZM448.1 151.2L449.5 126H484.3V170.2H439C444.5 167.2 447.6 160.9 448.1 151.2Z" fill="#FFFFFF"></path>
<path d="M571 112.7L534.6 176.6V112.7H519.7V183.6H547.1L583.5 119.7V183.6H598.4V112.7H571Z" fill="#FFFFFF"></path>
<path d="M607 112.7V126H635.8V183.6H650.7V126H679.5V112.7H607Z" fill="#FFFFFF"></path>
</svg>